<svg width="16" height="16" viewBox="0 0 16 16" fill="none" xmlns="http://www.w3.org/2000/svg">
<path d="M5 2.5C4.50555 2.5 4.0222 2.64662 3.61108 2.92133C3.19995 3.19603 2.87952 3.58648 2.6903 4.04329C2.50108 4.50011 2.45157 5.00277 2.54804 5.48773C2.6445 5.97268 2.8826 6.41814 3.23223 6.76777C3.58187 7.1174 4.02732 7.3555 4.51228 7.45196C4.99723 7.54843 5.49989 7.49892 5.95671 7.3097C6.41352 7.12048 6.80397 6.80005 7.07867 6.38893C7.35338 5.9778 7.5 5.49445 7.5 5C7.5 4.33696 7.23661 3.70108 6.76777 3.23223C6.29893 2.76339 5.66304 2.5 5 2.5ZM5 6.5C4.70333 6.5 4.41332 6.41203 4.16665 6.24721C3.91997 6.08238 3.72771 5.84812 3.61418 5.57403C3.50065 5.29994 3.47095 4.99834 3.52882 4.70737C3.5867 4.41639 3.72956 4.14912 3.93934 3.93934C4.14912 3.72956 4.41639 3.5867 4.70737 3.52882C4.99834 3.47095 5.29994 3.50065 5.57403 3.61418C5.84812 3.72771 6.08238 3.91997 6.24721 4.16665C6.41203 4.41332 6.5 4.70333 6.5 5C6.5 5.39783 6.34197 5.77936 6.06066 6.06066C5.77936 6.34197 5.39783 6.5 5 6.5ZM11 7.5C11.4945 7.5 11.9778 7.35338 12.3889 7.07867C12.8 6.80397 13.1205 6.41352 13.3097 5.95671C13.4989 5.49989 13.5484 4.99723 13.452 4.51228C13.3555 4.02732 13.1174 3.58187 12.7678 3.23223C12.4181 2.8826 11.9727 2.6445 11.4877 2.54804C11.0028 2.45157 10.5001 2.50108 10.0433 2.6903C9.58648 2.87952 9.19603 3.19995 8.92133 3.61108C8.64662 4.0222 8.5 4.50555 8.5 5C8.5 5.66304 8.76339 6.29893 9.23223 6.76777C9.70108 7.23661 10.337 7.5 11 7.5ZM11 3.5C11.2967 3.5 11.5867 3.58797 11.8334 3.7528C12.08 3.91762 12.2723 4.15189 12.3858 4.42598C12.4994 4.70007 12.5291 5.00167 12.4712 5.29264C12.4133 5.58361 12.2704 5.85088 12.0607 6.06066C11.8509 6.27044 11.5836 6.4133 11.2926 6.47118C11.0017 6.52906 10.7001 6.49935 10.426 6.38582C10.1519 6.27229 9.91762 6.08003 9.7528 5.83336C9.58797 5.58668 9.5 5.29667 9.5 5C9.5 4.60218 9.65804 4.22065 9.93934 3.93934C10.2206 3.65804 10.6022 3.5 11 3.5ZM5 8.5C4.50555 8.5 4.0222 8.64662 3.61108 8.92133C3.19995 9.19603 2.87952 9.58648 2.6903 10.0433C2.50108 10.5001 2.45157 11.0028 2.54804 11.4877C2.6445 11.9727 2.8826 12.4181 3.23223 12.7678C3.58187 13.1174 4.02732 13.3555 4.51228 13.452C4.99723 13.5484 5.49989 13.4989 5.95671 13.3097C6.41352 13.1205 6.80397 12.8 7.07867 12.3889C7.35338 11.9778 7.5 11.4945 7.5 11C7.5 10.337 7.23661 9.70108 6.76777 9.23223C6.29893 8.76339 5.66304 8.5 5 8.5ZM5 12.5C4.70333 12.5 4.41332 12.412 4.16665 12.2472C3.91997 12.0824 3.72771 11.8481 3.61418 11.574C3.50065 11.2999 3.47095 10.9983 3.52882 10.7074C3.5867 10.4164 3.72956 10.1491 3.93934 9.93934C4.14912 9.72956 4.41639 9.5867 4.70737 9.52882C4.99834 9.47094 5.29994 9.50065 5.57403 9.61418C5.84812 9.72771 6.08238 9.91997 6.24721 10.1666C6.41203 10.4133 6.5 10.7033 6.5 11C6.5 11.3978 6.34197 11.7794 6.06066 12.0607C5.77936 12.342 5.39783 12.5 5 12.5ZM11 8.5C10.5055 8.5 10.0222 8.64662 9.61108 8.92133C9.19995 9.19603 8.87952 9.58648 8.6903 10.0433C8.50108 10.5001 8.45157 11.0028 8.54804 11.4877C8.6445 11.9727 8.8826 12.4181 9.23223 12.7678C9.58187 13.1174 10.0273 13.3555 10.5123 13.452C10.9972 13.5484 11.4999 13.4989 11.9567 13.3097C12.4135 13.1205 12.804 12.8 13.0787 12.3889C13.3534 11.9778 13.5 11.4945 13.5 11C13.5 10.337 13.2366 9.70108 12.7678 9.23223C12.2989 8.76339 11.663 8.5 11 8.5ZM11 12.5C10.7033 12.5 10.4133 12.412 10.1666 12.2472C9.91997 12.0824 9.72771 11.8481 9.61418 11.574C9.50065 11.2999 9.47094 10.9983 9.52882 10.7074C9.5867 10.4164 9.72956 10.1491 9.93934 9.93934C10.1491 9.72956 10.4164 9.5867 10.7074 9.52882C10.9983 9.47094 11.2999 9.50065 11.574 9.61418C11.8481 9.72771 12.0824 9.91997 12.2472 10.1666C12.412 10.4133 12.5 10.7033 12.5 11C12.5 11.3978 12.342 11.7794 12.0607 12.0607C11.7794 12.342 11.3978 12.5 11 12.5Z" fill="black"/>
</svg>
