<svg width="16" height="16" viewBox="0 0 16 16" fill="none" xmlns="http://www.w3.org/2000/svg">
<path d="M6.01634 2.31563C5.99979 2.25202 5.99594 2.18577 6.00502 2.12067C6.0141 2.05557 6.03592 1.9929 6.06924 1.93624C6.10256 1.87959 6.14672 1.83006 6.19921 1.79048C6.25169 1.75091 6.31146 1.72208 6.37509 1.70563C7.44099 1.43073 8.5592 1.43073 9.62509 1.70563C9.74315 1.73585 9.84611 1.80816 9.91461 1.90895C9.98311 2.00975 10.0124 2.13209 9.99709 2.25299C9.98174 2.37389 9.92276 2.48502 9.83124 2.56549C9.73972 2.64596 9.62196 2.69024 9.50009 2.69C9.45791 2.68978 9.41593 2.68432 9.37509 2.67375C8.47318 2.44113 7.527 2.44113 6.62509 2.67375C6.49688 2.70683 6.36079 2.6877 6.24667 2.62056C6.13255 2.55342 6.04972 2.44376 6.01634 2.31563ZM3.36197 3.44625C2.59112 4.23121 2.03201 5.19889 1.73697 6.25875C1.70158 6.38655 1.71841 6.52318 1.78375 6.63857C1.8491 6.75397 1.9576 6.83868 2.08541 6.87406C2.21321 6.90945 2.34983 6.89263 2.46523 6.82728C2.58062 6.76194 2.66533 6.65343 2.70072 6.52563C2.95014 5.62848 3.42325 4.80935 4.07572 4.145C4.16106 4.049 4.20618 3.92384 4.20173 3.79547C4.19728 3.6671 4.1436 3.54537 4.05181 3.45551C3.96003 3.36565 3.83718 3.31457 3.70874 3.31284C3.58031 3.31112 3.45613 3.35889 3.36197 3.44625ZM2.70072 9.47188C2.68315 9.4086 2.6533 9.34939 2.61285 9.29765C2.57241 9.24591 2.52217 9.20264 2.465 9.17031C2.40784 9.13799 2.34486 9.11724 2.27968 9.10925C2.21449 9.10126 2.14837 9.10619 2.08509 9.12375C2.02181 9.14132 1.96261 9.17117 1.91087 9.21162C1.85913 9.25206 1.81586 9.3023 1.78353 9.35947C1.7512 9.41663 1.73045 9.47961 1.72246 9.54479C1.71448 9.60998 1.7194 9.6761 1.73697 9.73938C2.03219 10.7992 2.59127 11.7668 3.36197 12.5519C3.45496 12.6464 3.58171 12.7002 3.71433 12.7013C3.84696 12.7024 3.97459 12.6508 4.06916 12.5578C4.16372 12.4648 4.21747 12.3381 4.21859 12.2055C4.2197 12.0728 4.16808 11.9452 4.07509 11.8506C3.42343 11.1865 2.9506 10.3681 2.70072 9.47188ZM9.37509 13.3263C8.47321 13.5591 7.52697 13.5591 6.62509 13.3263C6.56115 13.3087 6.49436 13.304 6.42861 13.3125C6.36285 13.321 6.29944 13.3425 6.24206 13.3758C6.18469 13.409 6.1345 13.4533 6.09441 13.5061C6.05433 13.5589 6.02515 13.6192 6.00857 13.6834C5.99199 13.7476 5.98835 13.8144 5.99785 13.8801C6.00735 13.9457 6.02981 14.0088 6.06392 14.0656C6.09803 14.1225 6.14311 14.172 6.19653 14.2113C6.24995 14.2505 6.31065 14.2788 6.37509 14.2944C7.44099 14.5693 8.5592 14.5693 9.62509 14.2944C9.75169 14.2596 9.85953 14.1765 9.92534 14.0629C9.99115 13.9493 10.0096 13.8143 9.97681 13.6872C9.94398 13.5601 9.86248 13.451 9.7499 13.3835C9.63732 13.3159 9.50269 13.2954 9.37509 13.3263ZM13.9157 9.125C13.8524 9.10744 13.7862 9.10253 13.721 9.11055C13.6558 9.11857 13.5928 9.13938 13.5356 9.17177C13.4784 9.20416 13.4282 9.2475 13.3878 9.29932C13.3474 9.35113 13.3176 9.41041 13.3001 9.47375C13.0508 10.3708 12.5777 11.1897 11.9251 11.8538C11.8791 11.9006 11.8428 11.9561 11.8182 12.017C11.7936 12.0779 11.7813 12.143 11.7819 12.2087C11.7825 12.2744 11.7961 12.3393 11.8218 12.3997C11.8474 12.4602 11.8848 12.5149 11.9317 12.5609C11.9785 12.6069 12.034 12.6433 12.0949 12.6678C12.1558 12.6924 12.2209 12.7047 12.2866 12.7041C12.3523 12.7035 12.4172 12.69 12.4776 12.6643C12.5381 12.6386 12.5928 12.6012 12.6388 12.5544C13.4098 11.7695 13.9689 10.8018 14.2638 9.74188C14.2816 9.67851 14.2867 9.61227 14.2788 9.54694C14.2709 9.48161 14.2502 9.41847 14.2179 9.36116C14.1855 9.30385 14.1422 9.25349 14.0903 9.21297C14.0385 9.17244 13.9791 9.14255 13.9157 9.125ZM13.2995 6.52875C13.317 6.59203 13.3469 6.65123 13.3873 6.70298C13.4278 6.75472 13.478 6.79799 13.5352 6.83032C13.5923 6.86264 13.6553 6.88339 13.7205 6.89138C13.7857 6.89937 13.8518 6.89444 13.9151 6.87688C13.9784 6.85931 14.0376 6.82946 14.0893 6.78901C14.1411 6.74857 14.1843 6.69833 14.2167 6.64116C14.249 6.584 14.2697 6.52102 14.2777 6.45584C14.2857 6.39065 14.2808 6.32453 14.2632 6.26125C13.9683 5.20134 13.4092 4.23362 12.6382 3.44875C12.5922 3.40193 12.5374 3.36463 12.4769 3.33899C12.4164 3.31335 12.3515 3.29987 12.2859 3.29932C12.2202 3.29877 12.1551 3.31116 12.0942 3.33578C12.0333 3.3604 11.9779 3.39677 11.931 3.44281C11.8842 3.48886 11.8469 3.54368 11.8213 3.60414C11.7956 3.66459 11.7821 3.72951 11.7816 3.79518C11.781 3.86085 11.7934 3.92598 11.8181 3.98686C11.8427 4.04774 11.879 4.10318 11.9251 4.15C12.577 4.81372 13.0498 5.63194 13.2995 6.52813V6.52875Z" fill="black"/>
</svg>
