<svg width="15" height="14" viewBox="0 0 15 14" fill="none" xmlns="http://www.w3.org/2000/svg">
<path d="M2.78019 12.893H12.2217M7.20556 0.933256C7.23467 0.880388 7.27743 0.836301 7.32939 0.805596C7.38135 0.774891 7.44059 0.758693 7.50094 0.758693C7.5613 0.758693 7.62054 0.774891 7.6725 0.805596C7.72446 0.836301 7.76722 0.880388 7.79633 0.933256L9.78714 4.71256C9.83462 4.80007 9.90088 4.87599 9.98117 4.93485C10.0615 4.99372 10.1538 5.03408 10.2515 5.05303C10.3493 5.07199 10.45 5.06907 10.5465 5.04448C10.6429 5.0199 10.7328 4.97425 10.8095 4.91083L13.6939 2.43985C13.7493 2.39482 13.8175 2.36851 13.8888 2.36473C13.96 2.36094 14.0307 2.37986 14.0905 2.41878C14.1503 2.45769 14.1963 2.51458 14.2217 2.58127C14.2472 2.64795 14.2508 2.72099 14.2321 2.78986L12.3208 9.6997C12.2818 9.8411 12.1978 9.96593 12.0814 10.0553C11.9651 10.1446 11.8228 10.1935 11.6761 10.1947H3.32644C3.17965 10.1937 3.0372 10.1448 2.92072 10.0555C2.80424 9.96612 2.72009 9.84121 2.68105 9.6997L0.770491 2.79054C0.751777 2.72166 0.7554 2.64863 0.780837 2.58194C0.806275 2.51526 0.852216 2.45836 0.912047 2.41945C0.971878 2.38054 1.04251 2.36161 1.11379 2.3654C1.18506 2.36919 1.25329 2.39549 1.30866 2.44053L4.19237 4.91151C4.26911 4.97493 4.35895 5.02057 4.45542 5.04516C4.5519 5.06974 4.65262 5.07266 4.75036 5.05371C4.8481 5.03475 4.94043 4.99439 5.02072 4.93553C5.10101 4.87666 5.16727 4.80075 5.21475 4.71324L7.20556 0.933256Z" stroke="white" stroke-width="1.5" stroke-linecap="round" stroke-linejoin="round"/>
</svg>
