<svg width="9" height="5" viewBox="0 0 9 5" fill="none" xmlns="http://www.w3.org/2000/svg">
<path fill-rule="evenodd" clip-rule="evenodd" d="M0.190777 0.187933C0.30985 0.0733727 0.469533 0.0107728 0.634738 0.0138899C0.799942 0.017007 0.95715 0.0855859 1.07182 0.204556L4.15545 3.4777L7.23909 0.204556C7.29514 0.142763 7.36302 0.0928499 7.43872 0.0577738C7.51442 0.0226977 7.59638 0.00317278 7.67976 0.000355552C7.76314 -0.00246167 7.84624 0.011486 7.92413 0.0413728C8.00202 0.0712595 8.07312 0.116477 8.13321 0.174346C8.19331 0.232214 8.24117 0.301557 8.27398 0.378264C8.30678 0.454972 8.32385 0.537484 8.32418 0.62091C8.32451 0.704337 8.30809 0.786981 8.2759 0.863946C8.2437 0.94091 8.19639 1.01063 8.13675 1.06897L4.60428 4.80923C4.54613 4.86956 4.47642 4.91755 4.3993 4.95033C4.32218 4.98311 4.23925 5 4.15545 5C4.07166 5 3.98872 4.98311 3.91161 4.95033C3.83449 4.91755 3.76477 4.86956 3.70662 4.80923L0.174154 1.06897C0.0595939 0.9499 -0.00300599 0.790216 0.00011107 0.625012C0.00322813 0.459807 0.0718071 0.302599 0.190777 0.187933Z" fill="black"/>
</svg>
