<svg width="16" height="16" viewBox="0 0 16 16" fill="none" xmlns="http://www.w3.org/2000/svg">
<path d="M3.58133 11.6598L1.04824 14.1929C-0.349414 12.7953 -0.349414 10.53 1.04824 9.13239L2.17802 8.00304L1.04824 6.87326C-0.349414 5.47561 -0.349414 3.21039 1.04824 1.81274L3.58133 4.34583C4.56848 5.33297 4.8594 6.75933 4.44845 8.00304C4.8594 9.24676 4.57413 10.6727 3.58133 11.6598ZM11.6598 12.4187C10.6727 11.4315 9.24676 11.1406 8.00304 11.5515C6.75933 11.1406 5.33297 11.4259 4.34583 12.4187L1.81274 14.9518C3.21039 16.3494 5.47561 16.3494 6.87326 14.9518L8.00304 13.822L9.13239 14.9518C10.53 16.3494 12.7953 16.3494 14.1929 14.9518L11.6598 12.4187ZM14.9518 9.13239L13.822 8.00304L14.9518 6.87326C16.3494 5.47561 16.3494 3.21039 14.9518 1.81274L12.4187 4.34017C11.4315 5.32732 11.1406 6.75324 11.5515 7.99696C11.1406 9.24067 11.4259 10.667 12.4187 11.6542L14.9518 14.1873C16.3494 12.7953 16.3494 10.53 14.9518 9.13239ZM4.34017 3.58133C5.32732 4.56848 6.75324 4.8594 7.99696 4.44845C9.24067 4.8594 10.667 4.57413 11.6542 3.58133L14.1873 1.04824C12.7896 -0.349414 10.5244 -0.349414 9.12674 1.04824L7.99696 2.17802L6.86761 1.04824C5.46995 -0.349414 3.20474 -0.349414 1.80708 1.04824L4.34017 3.58133Z" fill="black"/>
</svg>
