<svg width="14" height="12" viewBox="0 0 14 12" fill="none" xmlns="http://www.w3.org/2000/svg">
<path fill-rule="evenodd" clip-rule="evenodd" d="M3.25 0C2.38805 0 1.5614 0.34241 0.951903 0.951903C0.34241 1.5614 0 2.38805 0 3.25V8.75C0 9.1768 0.0840637 9.59941 0.247391 9.99372C0.410719 10.388 0.650113 10.7463 0.951903 11.0481C1.5614 11.6576 2.38805 12 3.25 12H10.75C11.1768 12 11.5994 11.9159 11.9937 11.7526C12.388 11.5893 12.7463 11.3499 13.0481 11.0481C13.3499 10.7463 13.5893 10.388 13.7526 9.99372C13.9159 9.59941 14 9.1768 14 8.75V3.25C14 2.8232 13.9159 2.40059 13.7526 2.00628C13.5893 1.61197 13.3499 1.25369 13.0481 0.951903C12.7463 0.650112 12.388 0.410719 11.9937 0.247391C11.5994 0.0840637 11.1768 0 10.75 0H3.25ZM1.5 8.5C1.5 9.03043 1.71071 9.53914 2.08579 9.91421C2.46086 10.2893 2.96957 10.5 3.5 10.5H10.75C11.2141 10.5 11.6592 10.3156 11.9874 9.98744C12.3156 9.65925 12.5 9.21413 12.5 8.75V3.25C12.5 2.78587 12.3156 2.34075 11.9874 2.01256C11.6592 1.68437 11.2141 1.5 10.75 1.5H3.5C2.96957 1.5 2.46086 1.71071 2.08579 2.08579C1.71071 2.46086 1.5 2.96957 1.5 3.5V8.5Z" fill="black"/>
</svg>
