<svg width="14" height="3" viewBox="0 0 14 3" fill="none" xmlns="http://www.w3.org/2000/svg">
<path d="M1.50022 2.9999C1.78438 2.9999 2.04012 2.93336 2.26744 2.8003C2.49477 2.66307 2.67704 2.48079 2.81427 2.25347C2.95288 2.02615 3.02184 1.77491 3.02115 1.49977C3.02115 1.07838 2.87422 0.723189 2.58036 0.434182C2.43971 0.291366 2.27108 0.179143 2.08503 0.104545C1.89899 0.0299477 1.69954 -0.00541557 1.49918 0.000671256C1.22473 0.000671256 0.973841 0.0692844 0.746516 0.206511C0.517634 0.335416 0.327597 0.523459 0.196285 0.750969C0.0649727 0.978479 -0.00278906 1.2371 8.79417e-05 1.49977C8.79417e-05 1.77491 0.066622 2.02615 0.19969 2.25347C0.336916 2.48079 0.519192 2.66307 0.746516 2.8003C0.973841 2.93336 1.22508 2.9999 1.50022 2.9999ZM6.81567 2.9999C7.07834 3.00278 7.33695 2.93501 7.56446 2.8037C7.79197 2.67239 7.98002 2.48235 8.10892 2.25347C8.24615 2.02615 8.31476 1.77491 8.31476 1.49977C8.31476 1.07838 8.16818 0.723189 7.87501 0.434182C7.73727 0.293586 7.57225 0.182612 7.39009 0.108066C7.20793 0.0335207 7.01246 -0.00302472 6.81567 0.000671256C6.54121 0.000671256 6.28998 0.0692844 6.06196 0.206511C5.83308 0.335416 5.64304 0.523459 5.51173 0.750969C5.38042 0.978479 5.31265 1.2371 5.31553 1.49977C5.31553 1.77491 5.38207 2.02615 5.51513 2.25347C5.65236 2.48079 5.83464 2.66307 6.06196 2.8003C6.28998 2.93336 6.54121 2.9999 6.81567 2.9999ZM12.1238 2.9999C12.399 2.9999 12.6502 2.93336 12.8775 2.8003C13.1049 2.66307 13.2871 2.48079 13.4244 2.25347C13.563 2.02615 13.6319 1.77491 13.6312 1.49977C13.6312 1.07838 13.4843 0.723189 13.1905 0.434182C13.0515 0.29318 12.8852 0.18201 12.7018 0.107471C12.5184 0.0329313 12.3218 -0.00340917 12.1238 0.000671256C11.8587 0.000326889 11.5981 0.0689604 11.3675 0.199829C11.1369 0.330697 10.9444 0.519297 10.8087 0.7471C10.6771 0.974424 10.6112 1.22531 10.6112 1.49977C10.6112 1.77491 10.6771 2.02615 10.8087 2.25347C10.9467 2.48079 11.1293 2.66307 11.3566 2.8003C11.5888 2.93336 11.8445 2.9999 12.1238 2.9999Z" fill="black"/>
</svg>
